<svg width="20" height="22" viewBox="0 0 20 22" fill="none" xmlns="http://www.w3.org/2000/svg"><path fill-rule="evenodd" clip-rule="evenodd" d="M1.21387 16.571C0.471233 16.1422 0.216787 15.1926 0.645548 14.45L8.21487 1.33953C8.64363 0.596898 9.59324 0.342453 10.3359 0.771214L18.4038 5.42926C19.1465 5.85802 19.4009 6.80763 18.9722 7.55026L11.4028 20.6607C10.9741 21.4033 10.0245 21.6578 9.28184 21.229L1.21387 16.571ZM4.84948 11.0503L9.70161 2.64613L17.0973 6.916L12.2451 15.3201L4.84948 11.0503ZM8.24921 15.2542L6.90455 14.4779L5.54595 16.831L6.89061 17.6074L8.24921 15.2542ZM8.57144 18.5778L9.93004 16.2246L11.2747 17.001L9.9161 19.3541L8.57144 18.5778ZM3.87906 12.7311L5.22372 13.5074L3.86512 15.8606L2.52046 15.0842L3.87906 12.7311Z" fill="url(#paint0_linear_1813_5152)"></path><path d="M9.51659 5.01343L10.3424 8.68665L8.19697 9.29467L8.21791 9.36894L6.68494 9.8212C6.66988 9.82559 6.67082 9.84725 6.68642 9.8509L6.81134 9.88048L7.93563 10.5296C7.94227 10.5334 7.94736 10.5399 7.94911 10.5475C7.95028 10.5523 7.95179 10.5577 7.95356 10.5599C7.96822 10.5683 7.98567 10.5704 8.00144 10.5658L9.15272 10.2267L9.15984 10.2519L10.2596 9.94703L10.2951 9.96753L10.6056 11.1054L10.6228 11.1153L10.9258 12.2628C10.9274 12.2691 10.9315 12.2741 10.9372 12.2774C10.9372 12.2774 10.9541 12.2899 10.961 12.2912C10.9624 12.2914 10.9649 12.2913 10.9674 12.2907C10.9768 12.2893 10.9866 12.2908 10.9951 12.2957L11.9751 12.8615C11.9916 12.871 12.0065 12.8826 12.0196 12.8964L12.1633 13.0311C12.1703 13.0375 12.1816 13.0337 12.1829 13.0246L12.1851 13.008C12.1895 12.9757 12.1873 12.9429 12.1791 12.9111L11.8 11.4347L11.9031 11.4085L11.3772 9.28441L15.0049 8.197L15.0013 8.19582C14.9448 8.17535 14.8853 8.16455 14.8254 8.16358L13.9909 7.68174C13.8967 7.62739 13.7893 7.60137 13.6816 7.60644L13.5059 7.61473L13.4662 7.47401L12.5407 7.76795L12.5214 7.69972L11.4223 8.02102L11.1283 6.88528L11.0922 6.89446L10.8541 5.97453L10.7374 6.00417C10.6774 5.84158 10.5541 5.69752 10.4 5.60854L9.63045 5.16425C9.63045 5.16425 9.56575 5.06263 9.51702 5.01427L9.51659 5.01343Z" fill="url(#paint1_linear_1813_5152)"></path><path d="M12.1845 13.0076C12.1888 12.9753 12.1866 12.9425 12.1784 12.9107L11.7993 11.4343L11.733 11.5073L12.0634 12.7271L12.1556 13.0243L12.1627 13.0311C12.1697 13.0375 12.181 13.0336 12.1823 13.0246L12.1846 13.008L12.1845 13.0076Z" fill="url(#paint2_linear_1813_5152)"></path><path d="M10.9991 8.58323L10.7077 7.30173L10.1521 6.31242C10.1521 6.31242 10.3138 7.90141 10.519 8.78895L6.72551 9.83926C6.97087 9.84377 8.05924 9.84528 9.2084 9.56326C10.4164 9.26668 10.666 9.16386 10.6716 9.16147L10.9988 8.5831L10.9991 8.58323Z" fill="url(#paint3_linear_1813_5152)"></path><path d="M12.0188 12.8963L12.1625 13.0309L11.6693 11.8302L11.0701 10.7503L10.7441 9.12954L10.3955 9.73334L11.0305 12.3164L11.9745 12.8614C11.991 12.871 12.006 12.8826 12.0191 12.8964L12.0188 12.8963Z" fill="url(#paint4_linear_1813_5152)"></path><path d="M9.20876 9.56317C7.90233 9.88381 6.67434 9.83798 6.67434 9.83798C6.67522 9.84385 6.6792 9.84912 6.68642 9.8509L6.81134 9.88048C6.83312 9.89247 7.91912 10.4561 7.91912 10.4561L10.2409 9.78805C10.2944 9.77254 10.3397 9.73742 10.3673 9.68967L10.6722 9.16151C10.6722 9.16151 10.4308 9.2634 9.20863 9.56339L9.20876 9.56317Z" fill="url(#paint5_linear_1813_5152)"></path><path d="M11.2971 9.6056L11.1419 9.02031L13.5398 8.21807L13.635 8.29234C13.635 8.29234 14.2949 8.12089 14.8245 8.16305L14.0708 7.72789C13.9009 7.62977 13.6979 7.60689 13.5134 7.66519L11.1405 8.41439L10.7395 9.10901L11.0698 10.7504L11.669 11.8303L12.1621 13.031L11.2914 9.68322L11.2967 9.60569L11.2971 9.6056Z" fill="url(#paint6_linear_1813_5152)"></path><path d="M15.0007 8.19484C14.9441 8.17437 14.8847 8.16357 14.8248 8.16261L14.8097 8.15388C14.3087 8.11814 13.6924 8.26957 13.6368 8.2833L13.5447 8.21168C13.5426 8.21014 13.5397 8.20935 13.5369 8.21044L11.1389 9.01267C11.1349 9.0139 11.1328 9.01805 11.1335 9.02205L11.2882 9.60614L11.2829 9.68251C11.2829 9.68251 11.2828 9.68424 11.2833 9.68508L12.1507 13.02L12.1622 13.0308C12.1644 13.0329 12.1668 13.0335 12.1694 13.0338C12.1699 13.0323 12.1705 13.0308 12.1701 13.0294L11.2995 9.68286L11.3048 9.60649C11.3048 9.60649 11.3049 9.60476 11.3045 9.60391L11.1512 9.02573L13.5378 8.22734L13.6295 8.29869C13.6316 8.30024 13.6343 8.30089 13.6368 8.30025C13.6434 8.29839 14.3016 8.12948 14.8241 8.17115C14.8804 8.17209 14.9362 8.18229 14.9897 8.20069L15.0037 8.19656L15.0001 8.19538L15.0005 8.19471L15.0007 8.19484Z" fill="url(#paint7_linear_1813_5152)"></path><path d="M10.0231 5.92114L10.1456 6.28399L10.7155 7.29879L11.0051 8.57274L11.108 8.39446L11.3331 8.31406L10.7366 6.00342C10.6766 5.84083 10.5533 5.69677 10.3992 5.60778L9.62966 5.1635L9.65096 5.20435L10.0231 5.92114Z" fill="url(#paint8_linear_1813_5152)"></path><path d="M11.2031 8.26996C11.1958 8.26573 11.1901 8.25859 11.1881 8.24998L10.7227 6.37083C10.7185 6.35417 10.7288 6.33747 10.7457 6.33356C10.7625 6.32986 10.7797 6.34036 10.784 6.35715L11.2494 8.2363C11.2536 8.25296 11.2433 8.26965 11.2264 8.27357C11.2183 8.27544 11.21 8.27392 11.2031 8.26996Z" fill="url(#paint9_linear_1813_5152)"></path><path d="M11.2494 8.2363L10.784 6.35715C10.7808 6.34427 10.7699 6.33503 10.7575 6.33323C10.7472 6.34004 10.7416 6.35289 10.7448 6.36577L11.2103 8.24492C11.2125 8.25367 11.218 8.26067 11.2253 8.2649C11.2287 8.26688 11.2328 8.26833 11.2368 8.26884C11.2472 8.2618 11.2529 8.24931 11.2498 8.23621L11.2494 8.2363Z" fill="url(#paint10_linear_1813_5152)"></path><path d="M11.1666 8.93729C11.176 8.94214 11.1872 8.94328 11.1978 8.93984L13.4389 8.18601C13.4594 8.17909 13.4701 8.15697 13.4626 8.13659C13.4551 8.11621 13.4325 8.10521 13.412 8.11212L11.1708 8.86596C11.1503 8.87288 11.1397 8.895 11.1472 8.91538C11.1507 8.92515 11.1578 8.93285 11.1666 8.93729Z" fill="url(#paint11_linear_1813_5152)"></path><path d="M11.1707 8.8656L13.4119 8.11177C13.4278 8.10639 13.4445 8.11186 13.455 8.12386C13.4548 8.13952 13.445 8.15381 13.4291 8.15919L11.1879 8.91302C11.1773 8.91668 11.1661 8.91532 11.1567 8.91048C11.1524 8.90797 11.1483 8.90501 11.1448 8.90093C11.145 8.88527 11.1547 8.87063 11.1706 8.86525L11.1708 8.86538L11.1707 8.8656Z" fill="url(#paint12_linear_1813_5152)"></path><path d="M10.7568 11.0148C10.7497 11.0107 10.7444 11.004 10.7424 10.9958L10.4859 9.96018C10.4818 9.9441 10.4919 9.92821 10.5081 9.92447C10.5243 9.92074 10.5406 9.93106 10.5448 9.94714L10.8013 10.9827C10.8054 10.9988 10.7953 11.0147 10.7791 11.0184C10.7714 11.0202 10.7635 11.0186 10.7571 11.0149L10.7568 11.0148Z" fill="url(#paint13_linear_1813_5152)"></path><path d="M10.8011 10.9826L10.5445 9.94701C10.5414 9.93448 10.5311 9.92586 10.5189 9.92419C10.5089 9.93092 10.5037 9.94309 10.5067 9.95549L10.7632 10.9911C10.7654 10.9995 10.7707 11.0061 10.7775 11.0101C10.781 11.0121 10.7846 11.0132 10.7884 11.014C10.7986 11.0074 10.8038 10.9952 10.8007 10.9827L10.8009 10.9828L10.8011 10.9826Z" fill="url(#paint14_linear_1813_5152)"></path><path d="M10.2724 9.66789C10.27 9.6603 10.2707 9.65175 10.2749 9.64439L10.4659 9.3137C10.4741 9.29942 10.4924 9.29479 10.507 9.30325C10.5217 9.31171 10.5268 9.32984 10.5185 9.34412L10.3276 9.6748C10.3194 9.68908 10.3011 9.69372 10.2865 9.68526C10.2794 9.68116 10.2745 9.67478 10.2725 9.66767L10.2724 9.66789Z" fill="url(#paint15_linear_1813_5152)"></path><path d="M10.3278 9.67493L10.5188 9.34425C10.5251 9.33332 10.5233 9.32007 10.5156 9.31059C10.5036 9.3087 10.4912 9.31375 10.4849 9.32468L10.2939 9.65536C10.2897 9.66273 10.289 9.67127 10.2914 9.67887C10.2926 9.68255 10.2943 9.68593 10.2969 9.68889C10.309 9.69114 10.3215 9.68587 10.3278 9.67493Z" fill="url(#paint16_linear_1813_5152)"></path><path d="M10.5277 8.78712C10.3357 7.95717 10.1772 6.46675 10.1593 6.29575C10.1587 6.29513 10.158 6.29473 10.1576 6.29389C10.1535 6.28675 10.1495 6.27938 10.1446 6.27243C10.1416 6.27395 10.1397 6.2773 10.1401 6.28081C10.1418 6.29695 10.3064 7.9031 10.5089 8.78278L6.6764 9.84393C6.67739 9.84539 6.67873 9.84677 6.68008 9.84814C6.68128 9.84764 6.68225 9.84701 6.68368 9.84665C6.68667 9.8457 6.6901 9.84559 6.69283 9.84509C6.69579 9.84472 6.6985 9.84479 6.70133 9.84464C6.70475 9.84453 6.70795 9.84429 6.71137 9.84419C6.71691 9.84411 6.72229 9.84484 6.72767 9.84557C6.72872 9.84587 6.72986 9.84653 6.73091 9.84684L10.5218 8.79739C10.5262 8.79607 10.5288 8.79161 10.5277 8.78712Z" fill="url(#paint17_linear_1813_5152)"></path><path d="M11.011 8.56248L10.7233 7.29737C10.7233 7.29737 10.7229 7.29595 10.7225 7.29511L10.1534 6.28163L10.0304 5.91758L9.6367 5.15923C9.63397 5.15498 9.57089 5.05638 9.52216 5.00801C9.51901 5.00501 9.51373 5.00463 9.51062 5.0079C9.50729 5.01103 9.50739 5.01615 9.51077 5.01929C9.55815 5.06628 9.62232 5.16669 9.62265 5.16718L10.0156 5.92362L10.1387 6.28803L10.7079 7.30186L10.9993 8.58336L11.0113 8.56261L11.011 8.56248Z" fill="url(#paint18_linear_1813_5152)"></path><path d="M9.76006 9.4096C9.42466 9.49652 9.09014 9.58721 8.74968 9.65275C8.40949 9.71994 8.06419 9.76424 7.71779 9.79512C7.54452 9.80962 7.37053 9.81954 7.19651 9.82529C7.02354 9.83134 6.84973 9.83303 6.6768 9.82631C6.67137 9.83359 6.67341 9.84488 6.68273 9.84937C7.02961 9.8515 7.37516 9.83798 7.71911 9.80659C8.06624 9.77762 8.41177 9.73345 8.75352 9.67043C9.0957 9.60826 9.4316 9.52046 9.7679 9.43674C9.93586 9.39388 10.1038 9.35009 10.2708 9.30404C10.3993 9.26815 10.5275 9.23236 10.6547 9.19186L10.6828 9.14321C10.5443 9.19001 10.4022 9.23143 10.2611 9.27223C10.0946 9.31984 9.92752 9.36497 9.76018 9.40938L9.76006 9.4096Z" fill="url(#paint19_linear_1813_5152)"></path><path d="M10.3519 8.68499L9.52431 5.01223C9.52333 5.0081 9.51924 5.00514 9.51472 5.0061C9.51055 5.00696 9.50765 5.01094 9.50872 5.01543L10.3305 8.68013L8.19424 9.28565L8.19955 9.30449L10.3449 8.69647C10.3497 8.69506 10.3529 8.69006 10.3515 8.68509L10.3519 8.68499Z" fill="url(#paint20_linear_1813_5152)"></path><path d="M11.3946 8.03092L10.8617 5.97182L10.8449 5.9761L11.3779 8.03497C11.3786 8.03745 11.38 8.03918 11.3821 8.04037C11.3842 8.04156 11.3864 8.04195 11.3885 8.0414C11.3932 8.04022 11.3961 8.03567 11.3946 8.03092Z" fill="url(#paint21_linear_1813_5152)"></path><path d="M12.5182 7.68951L11.4289 8.00791L11.1376 6.88234L11.1187 6.88715L11.4125 8.02254C11.4132 8.02503 11.4149 8.02747 11.4172 8.02879C11.4195 8.03011 11.4223 8.03054 11.4249 8.02968L12.5237 7.70847L12.5184 7.68964L12.5182 7.68951Z" fill="url(#paint22_linear_1813_5152)"></path><path d="M13.4933 7.5724C13.4933 7.5724 13.4929 7.57214 13.4926 7.57259L11.4504 8.20505L11.4327 8.13357L13.4692 7.48676L13.4617 7.46011L13.4607 7.46016L11.4114 8.11081C11.4045 8.11312 11.4005 8.12004 11.4021 8.12688L11.4264 8.22542C11.4273 8.2292 11.4297 8.23239 11.4332 8.23437C11.4366 8.23636 11.4407 8.23665 11.4444 8.23551L13.5004 7.59879L13.4929 7.57214L13.4933 7.5724Z" fill="url(#paint23_linear_1813_5152)"></path><path d="M15.0118 8.19412C15.0104 8.18972 15.0059 8.18743 15.0015 8.18874L11.3732 9.27438C11.3684 9.27578 11.3655 9.28091 11.3666 9.28576L11.8925 11.4098L11.8927 11.41L11.9117 11.4052L11.3882 9.29018L15.0066 8.20362C15.011 8.20231 15.0133 8.19794 15.0118 8.19354L15.0116 8.19398L15.0118 8.19412Z" fill="url(#paint24_linear_1813_5152)"></path><path d="M11.8127 11.4307L11.2783 9.31773L11.3158 9.30667L11.8423 11.4228L11.8425 11.4229L11.8693 11.4161L11.3393 9.28604C11.3384 9.28226 11.336 9.27907 11.3326 9.27709C11.3291 9.2751 11.3251 9.27459 11.3214 9.27572L11.2571 9.29453C11.2501 9.29671 11.246 9.30385 11.2477 9.31082L11.7857 11.4372L11.8126 11.4303L11.8127 11.4307Z" fill="url(#paint25_linear_1813_5152)"></path><path d="M10.6173 11.1115L10.3045 9.96494C10.3038 9.96245 10.3021 9.96024 10.2998 9.95892L10.2643 9.93842C10.262 9.9371 10.2592 9.93667 10.2565 9.93753L9.15713 10.2423L9.16244 10.2612L10.2581 9.9575L10.2863 9.97376L10.5929 11.0977L10.6172 11.1118L10.6173 11.1115Z" fill="url(#paint26_linear_1813_5152)"></path><defs><linearGradient id="paint0_linear_1813_5152" x1="8.99121" y1="-0.00512695" x2="20.095" y2="7.00278" gradientUnits="userSpaceOnUse"><stop stop-color="#3681C6"></stop><stop offset="1" stop-color="#2B4A9D"></stop></linearGradient><linearGradient id="paint1_linear_1813_5152" x1="8.99121" y1="-0.00512695" x2="20.095" y2="7.00278" gradientUnits="userSpaceOnUse"><stop stop-color="#3681C6"></stop><stop offset="1" stop-color="#2B4A9D"></stop></linearGradient><linearGradient id="paint2_linear_1813_5152" x1="8.99121" y1="-0.00512695" x2="20.095" y2="7.00278" gradientUnits="userSpaceOnUse"><stop stop-color="#3681C6"></stop><stop offset="1" stop-color="#2B4A9D"></stop></linearGradient><linearGradient id="paint3_linear_1813_5152" x1="8.99121" y1="-0.00512695" x2="20.095" y2="7.00278" gradientUnits="userSpaceOnUse"><stop stop-color="#3681C6"></stop><stop offset="1" stop-color="#2B4A9D"></stop></linearGradient><linearGradient id="paint4_linear_1813_5152" x1="8.99121" y1="-0.00512695" x2="20.095" y2="7.00278" gradientUnits="userSpaceOnUse"><stop stop-color="#3681C6"></stop><stop offset="1" stop-color="#2B4A9D"></stop></linearGradient><linearGradient id="paint5_linear_1813_5152" x1="8.99121" y1="-0.00512695" x2="20.095" y2="7.00278" gradientUnits="userSpaceOnUse"><stop stop-color="#3681C6"></stop><stop offset="1" stop-color="#2B4A9D"></stop></linearGradient><linearGradient id="paint6_linear_1813_5152" x1="8.99121" y1="-0.00512695" x2="20.095" y2="7.00278" gradientUnits="userSpaceOnUse"><stop stop-color="#3681C6"></stop><stop offset="1" stop-color="#2B4A9D"></stop></linearGradient><linearGradient id="paint7_linear_1813_5152" x1="8.99121" y1="-0.00512695" x2="20.095" y2="7.00278" gradientUnits="userSpaceOnUse"><stop stop-color="#3681C6"></stop><stop offset="1" stop-color="#2B4A9D"></stop></linearGradient><linearGradient id="paint8_linear_1813_5152" x1="8.99121" y1="-0.00512695" x2="20.095" y2="7.00278" gradientUnits="userSpaceOnUse"><stop stop-color="#3681C6"></stop><stop offset="1" stop-color="#2B4A9D"></stop></linearGradient><linearGradient id="paint9_linear_1813_5152" x1="8.99121" y1="-0.00512695" x2="20.095" y2="7.00278" gradientUnits="userSpaceOnUse"><stop stop-color="#3681C6"></stop><stop offset="1" stop-color="#2B4A9D"></stop></linearGradient><linearGradient id="paint10_linear_1813_5152" x1="8.99121" y1="-0.00512695" x2="20.095" y2="7.00278" gradientUnits="userSpaceOnUse"><stop stop-color="#3681C6"></stop><stop offset="1" stop-color="#2B4A9D"></stop></linearGradient><linearGradient id="paint11_linear_1813_5152" x1="8.99121" y1="-0.00512695" x2="20.095" y2="7.00278" gradientUnits="userSpaceOnUse"><stop stop-color="#3681C6"></stop><stop offset="1" stop-color="#2B4A9D"></stop></linearGradient><linearGradient id="paint12_linear_1813_5152" x1="8.99121" y1="-0.00512695" x2="20.095" y2="7.00278" gradientUnits="userSpaceOnUse"><stop stop-color="#3681C6"></stop><stop offset="1" stop-color="#2B4A9D"></stop></linearGradient><linearGradient id="paint13_linear_1813_5152" x1="8.99121" y1="-0.00512695" x2="20.095" y2="7.00278" gradientUnits="userSpaceOnUse"><stop stop-color="#3681C6"></stop><stop offset="1" stop-color="#2B4A9D"></stop></linearGradient><linearGradient id="paint14_linear_1813_5152" x1="8.99121" y1="-0.00512695" x2="20.095" y2="7.00278" gradientUnits="userSpaceOnUse"><stop stop-color="#3681C6"></stop><stop offset="1" stop-color="#2B4A9D"></stop></linearGradient><linearGradient id="paint15_linear_1813_5152" x1="8.99121" y1="-0.00512695" x2="20.095" y2="7.00278" gradientUnits="userSpaceOnUse"><stop stop-color="#3681C6"></stop><stop offset="1" stop-color="#2B4A9D"></stop></linearGradient><linearGradient id="paint16_linear_1813_5152" x1="8.99121" y1="-0.00512695" x2="20.095" y2="7.00278" gradientUnits="userSpaceOnUse"><stop stop-color="#3681C6"></stop><stop offset="1" stop-color="#2B4A9D"></stop></linearGradient><linearGradient id="paint17_linear_1813_5152" x1="8.99121" y1="-0.00512695" x2="20.095" y2="7.00278" gradientUnits="userSpaceOnUse"><stop stop-color="#3681C6"></stop><stop offset="1" stop-color="#2B4A9D"></stop></linearGradient><linearGradient id="paint18_linear_1813_5152" x1="8.99121" y1="-0.00512695" x2="20.095" y2="7.00278" gradientUnits="userSpaceOnUse"><stop stop-color="#3681C6"></stop><stop offset="1" stop-color="#2B4A9D"></stop></linearGradient><linearGradient id="paint19_linear_1813_5152" x1="8.99121" y1="-0.00512695" x2="20.095" y2="7.00278" gradientUnits="userSpaceOnUse"><stop stop-color="#3681C6"></stop><stop offset="1" stop-color="#2B4A9D"></stop></linearGradient><linearGradient id="paint20_linear_1813_5152" x1="8.99121" y1="-0.00512695" x2="20.095" y2="7.00278" gradientUnits="userSpaceOnUse"><stop stop-color="#3681C6"></stop><stop offset="1" stop-color="#2B4A9D"></stop></linearGradient><linearGradient id="paint21_linear_1813_5152" x1="8.99121" y1="-0.00512695" x2="20.095" y2="7.00278" gradientUnits="userSpaceOnUse"><stop stop-color="#3681C6"></stop><stop offset="1" stop-color="#2B4A9D"></stop></linearGradient><linearGradient id="paint22_linear_1813_5152" x1="8.99121" y1="-0.00512695" x2="20.095" y2="7.00278" gradientUnits="userSpaceOnUse"><stop stop-color="#3681C6"></stop><stop offset="1" stop-color="#2B4A9D"></stop></linearGradient><linearGradient id="paint23_linear_1813_5152" x1="8.99121" y1="-0.00512695" x2="20.095" y2="7.00278" gradientUnits="userSpaceOnUse"><stop stop-color="#3681C6"></stop><stop offset="1" stop-color="#2B4A9D"></stop></linearGradient><linearGradient id="paint24_linear_1813_5152" x1="8.99121" y1="-0.00512695" x2="20.095" y2="7.00278" gradientUnits="userSpaceOnUse"><stop stop-color="#3681C6"></stop><stop offset="1" stop-color="#2B4A9D"></stop></linearGradient><linearGradient id="paint25_linear_1813_5152" x1="8.99121" y1="-0.00512695" x2="20.095" y2="7.00278" gradientUnits="userSpaceOnUse"><stop stop-color="#3681C6"></stop><stop offset="1" stop-color="#2B4A9D"></stop></linearGradient><linearGradient id="paint26_linear_1813_5152" x1="8.99121" y1="-0.00512695" x2="20.095" y2="7.00278" gradientUnits="userSpaceOnUse"><stop stop-color="#3681C6"></stop><stop offset="1" stop-color="#2B4A9D"></stop></linearGradient></defs></svg>